PathFileType	4	(X/Y/Z)	2014001\dynamic\2014001_C1_05.trc
DataRate	CameraRate	NumFrames	NumMarkers	Units	OrigDataRate	OrigDataStartFrame	OrigNumFrames
100.000000	100.000000	4	52	mm	100.000000	343	549
Frame#	Time	L_IAS			L_IPS			R_IPS			R_IAS			L_FTC			L_FLE			L_FME			L_FAX			L_TTC			L_FAL			L_TAM			L_FCC			L_FM1			L_FM2			L_FM5			R_FTC			R_FLE			R_FME			R_FAX			R_TTC			R_FAL			R_TAM			R_FCC			R_FM1			R_FM2			R_FM5			CV7			TV10			SXS			SJN			L_SIA			L_SRS			L_SAA			L_SAE			L_HLE			L_HME			L_UOA			L_RSP			L_UHE			L_HM2			L_HM5			R_SIA			R_SRS			R_SAA			R_SAE			R_HLE			R_HME			R_UOA			R_RSP			R_UHE			R_HM2			R_HM5			
		X1	Y1	Z1	X2	Y2	Z2	X3	Y3	Z3	X4	Y4	Z4	X5	Y5	Z5	X6	Y6	Z6	X7	Y7	Z7	X8	Y8	Z8	X9	Y9	Z9	X10	Y10	Z10	X11	Y11	Z11	X12	Y12	Z12	X13	Y13	Z13	X14	Y14	Z14	X15	Y15	Z15	X16	Y16	Z16	X17	Y17	Z17	X18	Y18	Z18	X19	Y19	Z19	X20	Y20	Z20	X21	Y21	Z21	X22	Y22	Z22	X23	Y23	Z23	X24	Y24	Z24	X25	Y25	Z25	X26	Y26	Z26	X27	Y27	Z27	X28	Y28	Z28	X29	Y29	Z29	X30	Y30	Z30	X31	Y31	Z31	X32	Y32	Z32	X33	Y33	Z33	X34	Y34	Z34	X35	Y35	Z35	X36	Y36	Z36	X37	Y37	Z37	X38	Y38	Z38	X39	Y39	Z39	X40	Y40	Z40	X41	Y41	Z41	X42	Y42	Z42	X43	Y43	Z43	X44	Y44	Z44	X45	Y45	Z45	X46	Y46	Z46	X47	Y47	Z47	X48	Y48	Z48	X49	Y49	Z49	X50	Y50	Z50	X51	Y51	Z51	X52	Y52	Z52	

344	3.43	291.3366088867189	886.290405273438	863.3125000000005	205.5109252929689	908.4221191406255	686.6220703125002	116.334587097168	901.8003540039067	689.8449707031252	48.19433593750003	872.8322753906255	870.6309204101567	351.5298767089845	802.5891723632817	797.3273925781255	355.4357910156251	467.4341125488284	923.608276367188	242.7412719726564	455.2174987792971	961.2070922851567	360.1735229492189	406.4125671386721	907.505981445313	326.6289367675782	389.4329833984377	980.2626342773442	338.5901794433595	82.62223052978518	902.501586914063	258.3532104492189	90.8520431518555	941.2532348632817	288.8668518066407	33.82640075683595	872.1687622070317	304.3254699707032	64.23648834228518	1050.230590820313	361.3830566406251	73.42088317871097	1041.051147460938	389.6250305175784	50.60912704467776	991.2199096679692	-0.668872654438019	770.4060668945317	781.5392456054692	66.95549774169925	425.8433532714846	770.7051391601567	187.9512786865235	425.4339294433596	772.972290039063	68.68705749511722	360.1555786132814	745.7854003906252	127.0990829467774	352.9172668457032	802.436645507813	138.5539245605469	64.52433776855472	655.9713134765627	227.2819061279298	82.54896545410159	690.8321533203127	196.4761962890626	26.28256988525392	609.5552368164065	209.6325531005861	20.61659240722657	796.0696411132817	145.4087066650391	37.50034332275392	801.713012695313	100.4580383300782	27.1353225708008	740.5073852539065	165.2839508056641	1377.11376953125	713.0535278320315	159.0560302734376	1142.56591796875	647.0352783203127	174.1795501708985	1144.40771484375	876.3684082031255	173.7154998779297	1306.956176757813	836.549194335938	251.7733612060548	1181.606811523438	634.4670410156252	248.0884552001954	1311.934814453125	659.117858886719	360.0554199218751	1305.46044921875	725.8974609375002	348.1812744140626	1316.242553710938	767.2490234375002	418.8429870605471	1033.052368164063	716.4305419921877	340.7857971191407	1001.394287109375	702.1880493164065	388.3775634765627	999.611450195313	686.527038574219	395.2346496582034	806.8717651367192	823.2581176757817	454.3853454589846	801.9272460937505	768.2883911132817	409.1497192382815	727.8651123046877	857.281860351563	456.7972717285159	722.8826904296877	766.5447998046877	45.11433029174806	1189.5380859375	646.308532714844	72.43939208984378	1313.514404296875	674.812438964844	-25.22958564758302	1310.978271484375	758.3129882812502	-10.31465339660645	1314.176879882813	805.4145507812505	-93.36331939697268	1012.504516601563	759.3259887695315	-20.11685371398926	995.432006835938	728.1728515625002	-66.6372985839844	987.574584960938	728.197692871094	-52.32086181640628	813.441528320313	872.513793945313	-119.5228958129883	805.8781127929692	826.5322265625005	-71.34999084472659	738.8768310546877	921.626342773438	-121.6148757934571	726.8048095703127	830.707641601563	
345	3.44	291.385711669922	886.0910644531255	865.1481933593755	205.7102661132814	907.9962768554692	688.3611450195315	116.5605239868165	901.385131835938	691.5062255859377	48.14851760864261	872.576049804688	872.2160644531255	351.6860351562501	802.4050903320317	799.3009643554692	355.1284179687501	467.3612976074221	926.435913085938	242.4364471435548	455.6163024902346	963.812377929688	360.0226135253907	405.8427734375002	911.3645629882817	326.2770996093751	390.4602661132815	984.2352905273442	338.778045654297	82.00748443603518	913.190795898438	258.3848876953126	91.0361251831055	951.5104370117192	289.087371826172	32.63483810424806	883.653686523438	304.0323181152345	66.47898101806643	1061.185791015625	361.1002807617189	75.53403472900393	1051.973754882813	389.4922485351565	51.75089263916018	1002.669250488282	-0.6221883893013003	770.0967407226567	783.065795898438	67.11083984375003	425.5890808105471	771.8235473632817	188.069320678711	425.144958496094	774.2080078125005	68.83956146240237	359.9364624023439	746.764831542969	127.1915969848633	352.6572265625001	803.4331054687505	138.6038055419922	64.56980133056643	656.0375976562502	227.3470306396486	82.49993896484378	690.916931152344	196.5012359619142	26.32545852661134	609.558288574219	209.6804046630861	20.57448959350587	796.069702148438	145.4111633300782	37.48523330688478	801.746948242188	100.4432449340821	27.15289878845216	740.5181884765627	165.483627319336	1376.7392578125	714.4747314453127	159.2726287841797	1142.173950195313	648.5256347656252	174.2901000976563	1144.092529296875	877.8804321289067	173.8853302001954	1306.6083984375	837.9746704101567	251.9454040527345	1181.166259765625	635.9666137695315	248.2863159179689	1311.517578125	660.5543212890627	360.241424560547	1305.0380859375	727.3322753906252	348.3804931640626	1315.838012695313	768.682006835938	418.9176940917971	1032.585083007813	717.936706542969	340.8497924804689	1000.955505371094	703.7134399414065	388.442321777344	999.1213378906255	688.0561523437502	395.0942077636721	806.5793457031255	825.0805053710942	454.2610168457034	801.4981079101567	770.1456909179692	408.9754333496096	727.6217041015627	859.2783813476567	456.6084899902346	722.4494628906252	768.5376586914067	45.33546447753908	1189.1611328125	647.7198486328127	72.65821075439456	1313.1357421875	676.223083496094	-25.04992485046388	1310.637573242188	759.7056884765627	-10.15457916259766	1313.794067382813	806.8510742187505	-93.12271118164065	1012.134887695313	760.7253417968752	-19.90114402770997	995.1106567382817	729.4710083007815	-66.42842102050784	987.269653320313	729.5435791015627	-52.01485443115237	812.892456054688	873.5195312500005	-119.2792282104493	805.4260864257817	827.5988159179692	-71.01184844970706	738.2238769531252	922.5112915039067	-121.3783798217774	726.3282470703127	831.6379394531255	
346	3.45	291.4398803710939	885.865600585938	867.0244140625005	205.9246215820314	907.5667114257817	690.1245117187502	116.800407409668	900.9699707031255	693.1915283203127	48.11297607421878	872.301635742188	873.8218383789067	351.839080810547	802.1894531250005	801.306030273438	354.8237609863282	467.2431640625002	929.1981811523442	242.0982818603517	455.9380798339846	966.2760620117192	359.8879699707032	405.2707824707034	915.1744995117192	325.8954467773439	391.4624328613284	988.0953979492192	339.0030212402345	81.53022003173831	923.7210083007817	258.417938232422	91.321403503418	961.5534057617192	289.3616638183595	31.59694099426271	894.9650268554692	303.6336669921876	68.81792449951175	1071.91943359375	360.7240600585939	77.74878692626956	1062.7314453125	389.3052368164065	53.01209640502933	1013.988220214844	-0.5804417133331301	769.7825317382817	784.6089477539067	67.26644134521487	425.321472167969	772.9617309570317	188.184555053711	424.8443603515627	775.4920043945317	68.99477386474612	359.7086486816407	747.7659912109377	127.3039779663087	352.358612060547	804.427856445313	138.6548614501954	64.61383056640628	656.1026611328127	227.4131622314454	82.44060516357425	691.009948730469	196.5257568359376	26.3671226501465	609.5638427734377	209.7107849121095	20.56711387634278	796.0585327148442	145.4145965576172	37.46858978271486	801.7803344726567	100.4295654296876	27.17208862304689	740.523376464844	165.7013092041016	1376.351684570313	715.926940917969	159.5149688720704	1141.766479492188	650.053405761719	174.413314819336	1143.767944335938	879.4267578125005	174.0687713623047	1306.25146484375	839.4298706054692	252.1381072998048	1180.7099609375	637.502868652344	248.5043792724611	1311.085083007813	662.0228271484377	360.4436645507814	1304.600219726563	728.7996826171877	348.5980834960939	1315.422119140625	770.1488647460942	419.0085449218752	1032.10791015625	719.4725341796877	340.930145263672	1000.505004882813	705.2706298828127	388.5215454101565	998.6190795898442	689.6164550781252	394.975280761719	806.2854614257817	826.941040039063	454.1504821777346	801.0587768554692	772.0353393554692	408.8132629394534	727.3684082031252	861.3047485351567	456.432800292969	722.0059814453127	770.561401367188	45.58152389526369	1188.769409179688	649.158630371094	72.89983367919925	1312.741821289063	677.6586914062502	-24.8530673980713	1310.283325195313	761.1204833984377	-9.979829788208011	1313.3984375	808.3125000000005	-92.86257171630862	1011.757263183594	762.143981933594	-19.6599521636963	994.7768554687505	730.8001708984377	-66.1949157714844	986.9584350585942	730.910827636719	-51.72542572021487	812.3206176757817	874.5287475585942	-119.0435333251954	804.9614868164067	828.6577758789067	-70.70475006103518	737.5423583984377	923.3858032226567	-121.1588897705079	725.8415527343752	832.5553588867192	
347	3.46	291.4980773925782	885.6123046875005	868.941772460938	206.1525268554689	907.1320190429692	691.9141845703127	117.0527648925782	900.5552368164067	694.9006347656252	48.08747863769534	872.0100097656255	875.4494628906255	351.988006591797	801.9412231445317	803.3447265625005	354.5203247070314	467.081970214844	931.8988647460942	241.7276611328126	456.1827697753909	968.6019897460942	359.7667236328126	404.7051086425784	918.9395141601567	325.4755249023439	392.4326171875002	991.8493652343755	339.2613830566407	81.18802642822268	934.0835571289067	258.4516906738282	91.7018966674805	971.367553710938	289.6912841796876	30.70698547363283	906.085815429688	303.1174621582032	71.24007415771487	1082.417236328125	360.2449340820314	80.05124664306643	1073.3173828125	389.055847167969	54.38224792480472	1025.172485351563	-0.5436417460441592	769.4614257812505	786.1765136718755	67.42079925537112	425.042419433594	774.118774414063	188.2952117919922	424.5326843261721	776.8213500976567	69.15084075927737	359.4732055664064	748.7858886718752	127.4342041015626	352.0204162597657	805.4207153320317	138.7060852050782	64.65666961669925	656.1660156250002	227.4801788330079	82.37308502197268	691.1085205078127	196.5501556396486	26.40905380249025	609.5704345703127	209.7247772216798	20.58964347839356	796.0402221679692	145.4188995361329	37.45012283325197	801.8115844726567	100.4170227050782	27.19133186340333	740.5222167968752	165.9391479492188	1375.95068359375	717.4123535156252	159.7834930419922	1141.342651367188	651.6199951171877	174.5481414794922	1143.432861328125	881.0087890625005	174.2652435302735	1305.884887695313	840.9172973632817	252.3534545898439	1180.237670898438	639.0781860351565	248.7451171875001	1310.636352539063	663.5268554687502	360.6633300781251	1304.145751953125	730.3057861328127	348.8344116210939	1314.993286132813	771.6555786132817	419.1161804199221	1031.619995117188	721.0433349609377	341.0276794433595	1000.042053222657	706.8631591796877	388.616882324219	998.104614257813	691.212585449219	394.8753051757815	805.984252929688	828.837524414063	454.054870605469	800.6063842773442	773.954956054688	408.6622314453127	727.099060058594	863.3545532226567	456.271911621094	721.5495605468752	772.6110839843755	45.85359954833986	1188.363403320313	650.625671386719	73.16604614257815	1312.332763671875	679.1207275390627	-24.63792037963869	1309.91552734375	762.5569458007815	-9.78983306884766	1312.9912109375	809.7973632812505	-92.58190917968753	1011.371704101563	763.5798339843752	-19.39134216308594	994.430297851563	732.1616821289065	-65.93426513671878	986.640258789063	732.2984619140627	-51.45185470581058	811.7269897460942	875.5463867187505	-118.813819885254	804.484741210938	829.7102661132817	-70.43016052246097	736.8366699218752	924.2551269531255	-120.9543914794922	725.3466796875002	833.4622192382817	
